<svg preserveAspectRatio="none" overflow="visible" style="display: block;" width="14" height="14" viewBox="0 0 14 14" fill="none" xmlns="http://www.w3.org/2000/svg">
<g id="star" clip-path="url(#clip0_697_122536)">
<path id="Vector" d="M6.83751 1.2127C6.78855 1.2431 6.74906 1.28657 6.7235 1.33822L5.37658 4.06764C5.28774 4.24746 5.15654 4.40301 4.99426 4.52088C4.83198 4.63875 4.64348 4.71543 4.445 4.7443L1.43208 5.18472C1.37474 5.19283 1.32083 5.21688 1.27649 5.25413C1.23216 5.29138 1.19917 5.34033 1.1813 5.39542C1.16342 5.4505 1.16138 5.50949 1.17539 5.56568C1.18941 5.62187 1.21893 5.67299 1.26058 5.71322L3.43992 7.83481C3.58377 7.9749 3.69139 8.14788 3.75348 8.33883C3.81557 8.52979 3.83028 8.73298 3.79633 8.93089L3.28242 11.9286C3.27242 11.9856 3.27861 12.0443 3.3003 12.0979C3.32199 12.1516 3.35829 12.1981 3.40509 12.2321C3.45189 12.2661 3.50729 12.2864 3.56501 12.2905C3.62273 12.2946 3.68044 12.2824 3.73158 12.2553L6.42483 10.839C6.60233 10.7458 6.79981 10.6971 7.00029 10.6971C7.20077 10.6971 7.39825 10.7458 7.57575 10.839L10.2696 12.2553C10.3207 12.2825 10.3785 12.2949 10.4363 12.2908C10.4942 12.2868 10.5497 12.2666 10.5966 12.2326C10.6435 12.1985 10.6798 12.1519 10.7015 12.0982C10.7232 12.0445 10.7294 11.9857 10.7193 11.9286L10.2048 8.93031C10.171 8.73249 10.1858 8.52942 10.2479 8.33859C10.31 8.14775 10.4175 7.97486 10.5613 7.83481L12.7406 5.71264C12.7819 5.67236 12.8111 5.62133 12.8249 5.56531C12.8387 5.50929 12.8366 5.45053 12.8188 5.39566C12.8009 5.34079 12.7681 5.29201 12.724 5.25484C12.6798 5.21766 12.6262 5.19358 12.5691 5.1853L9.55558 4.7443C9.35732 4.7152 9.16909 4.63843 9.00703 4.52057C8.84497 4.40271 8.71394 4.24729 8.62517 4.06764L7.27767 1.33822C7.2521 1.28657 7.21261 1.2431 7.16365 1.2127C7.11469 1.18231 7.05821 1.1662 7.00058 1.1662C6.94295 1.1662 6.88647 1.18231 6.83751 1.2127Z" stroke="var(--stroke-0, #FFF4A1)" stroke-width="2" stroke-linecap="round"/>
</g>
<defs>
<clipPath id="clip0_697_122536">
<rect width="14" height="14" fill="white"/>
</clipPath>
</defs>
</svg>
